<?xml version="1.0" encoding="utf-8"?>
<!-- Generator: Adobe Illustrator 19.0.1, SVG Export Plug-In . SVG Version: 6.00 Build 0)  -->
<svg version="1.1" id="Layer_1" xmlns="http://www.w3.org/2000/svg" xmlns:xlink="http://www.w3.org/1999/xlink" x="0px" y="0px"
	 viewBox="0 0 62.2 20" style="enable-background:new 0 0 62.2 20;" xml:space="preserve">
<style type="text/css">
	.st0{fill:#FFFFFF;}
</style>
<g>
	<g>
		<g>
			<path class="st0" d="M43.2,10h-0.7h-3.1c-0.2,0-0.4,0.1-0.5,0.2c-0.1,0.1-0.2,0.3-0.2,0.5c0,0.4,0.3,0.7,0.7,0.7h2.9
				c-0.6,1.7-2.2,3-4.1,3c-2.4,0-4.4-1.9-4.4-4.3V9.9c0-2.4,2-4.3,4.4-4.3c1.5,0,2.9,0.8,3.6,2c0,0,0,0,0,0.1C42,7.9,42.2,8,42.4,8
				c0.4,0,0.7-0.3,0.7-0.7c0-0.1,0-0.3-0.1-0.4l0,0c-1-1.6-2.8-2.6-4.8-2.6c-1.7,0-3.3,0.8-4.4,2V5c0-0.2-0.1-0.4-0.2-0.5
				c-0.1-0.1-0.3-0.2-0.5-0.2c-0.4,0-0.7,0.3-0.7,0.7V10v9.3c0,0.2,0.1,0.4,0.2,0.5c0.1,0.1,0.3,0.2,0.5,0.2c0.4,0,0.7-0.3,0.7-0.7
				v-5.5c1,1.2,2.6,2,4.4,2c2.9,0,5.4-2.2,5.7-5l0,0c0,0,0,0,0-0.1C43.9,10.3,43.6,10,43.2,10z"/>
			<path class="st0" d="M14.2,4.2c-1.4,0-2.7,0.6-3.5,1.5v-5c0-0.4-0.3-0.7-0.7-0.7C9.5,0,9.2,0.3,9.2,0.7v14.3
				c0,0.4,0.3,0.7,0.7,0.7c0.4,0,0.7-0.3,0.7-0.7V9.2c0-2,1.5-3.6,3.5-3.6c2,0,3.5,1.6,3.5,3.6l0,5.9c0,0.4,0.4,0.7,0.7,0.7
				c0.4,0,0.7-0.3,0.7-0.7c0,0,0-5.8,0-5.9C19.1,6.4,16.9,4.2,14.2,4.2z"/>
			<path class="st0" d="M25.8,4.2c-3.2,0-5.8,2.6-5.8,5.8c0,3.2,2.6,5.8,5.8,5.8c3.2,0,5.8-2.6,5.8-5.8C31.6,6.8,29,4.2,25.8,4.2z
				 M25.8,14.4c-2.4,0-4.4-2-4.4-4.4c0-2.4,2-4.4,4.4-4.4s4.4,2,4.4,4.4C30.2,12.4,28.3,14.4,25.8,14.4z"/>
			<path class="st0" d="M50.3,4.2c-3.2,0-5.8,2.6-5.8,5.8c0,3.2,2.6,5.8,5.8,5.8c3.2,0,5.8-2.6,5.8-5.8C56.1,6.8,53.5,4.2,50.3,4.2z
				 M50.3,14.4c-2.4,0-4.4-2-4.4-4.4s2-4.4,4.4-4.4c2.4,0,4.4,2,4.4,4.4S52.7,14.4,50.3,14.4z"/>
			<path class="st0" d="M6.8,10.2C6.1,9.8,5.2,9.6,4.5,9.5c-1.5-0.2-2.3-0.4-2.7-1C1.3,7.8,1.4,6.8,2.2,6.2c1-0.8,2.2-0.8,3.2-0.4
				c0.7,0.3,0.9,0.6,1.2,0.8c0.2,0.2,0.6,0.3,1,0.1c0.3-0.2,0.3-0.7,0-1.1C7.2,5.2,6.8,4.9,6.3,4.7C5.6,4.4,4.9,4.2,4.1,4.2
				C3.4,4.2,2.4,4.4,1.5,5C0.7,5.6,0.1,6.5,0.1,7.5c0,1.2,0.5,2.3,2.1,2.9c0.6,0.2,1.5,0.3,2.1,0.4c0.8,0.1,2.2,0.5,2.4,1.4
				C6.8,13,6.4,13.6,5.8,14c-0.6,0.4-1.4,0.5-2.2,0.4c-0.8-0.1-1.7-0.4-2-1.4c-0.1-0.3-0.1-0.4-0.2-0.6c-0.1-0.3-0.5-0.4-0.8-0.3
				C0.2,12.1,0,12.4,0,12.7c0,0.3,0.1,0.4,0.1,0.6c0.1,0.4,0.4,0.8,0.6,1.1c0.6,0.6,1.4,1,2.2,1.2c0.9,0.2,1.8,0.2,2.7-0.1
				c0.5-0.2,1-0.4,1.4-0.7c0.7-0.6,1.2-1.5,1.2-2.4C8.1,11.2,7.5,10.6,6.8,10.2z"/>
			<path class="st0" d="M56,5.5L56,5.5c2.5,2.5,2.5,6.5,0,9c-0.3,0.3-0.3,0.7-0.1,1c0.3,0.3,0.8,0.3,1.1,0l5-5
				c0.3-0.3,0.3-0.8,0-1.1l-5-5c-0.3-0.3-0.8-0.3-1.1,0C55.7,4.8,55.7,5.2,56,5.5z"/>
		</g>
	</g>
</g>
<g>
</g>
<g>
</g>
<g>
</g>
<g>
</g>
<g>
</g>
<g>
</g>
<g>
</g>
<g>
</g>
<g>
</g>
<g>
</g>
<g>
</g>
<g>
</g>
<g>
</g>
<g>
</g>
<g>
</g>
</svg>
